<?xml version="1.0" encoding="UTF-8"?>
<svg id="Layer_2" data-name="Layer 2" xmlns="http://www.w3.org/2000/svg" viewBox="0 0 437.58 88.08">
  <defs>
    <style>
      .cls-1 {
        fill: #fff;
      }

      .cls-2 {
        fill: #f68d3d;
      }

      .cls-3 {
        fill: #23201f;
      }
    </style>
  </defs>
  <g id="Layer_1-2" data-name="Layer 1">
    <g>
      <g id="PrivacyTV">
        <path class="cls-3" d="M21.41,17.83c3.16-1.73,6.77-2.58,10.83-2.58,4.72,0,9,1.18,12.83,3.55,3.83,2.37,6.85,5.73,9.08,10.08,2.23,4.36,3.34,9.41,3.34,15.15s-1.12,10.83-3.34,15.25c-2.23,4.43-5.26,7.85-9.08,10.29-3.83,2.43-8.1,3.65-12.83,3.65-4.06,0-7.64-.84-10.73-2.53-1.39-.76-2.66-1.6-3.82-2.54-1.49-1.21-3.72-.16-3.72,1.76v15.89c0,1.26-1.02,2.28-2.28,2.28H2.28c-1.26,0-2.28-1.02-2.28-2.28V18.43c0-1.26,1.02-2.28,2.28-2.28h9.41c1.26,0,2.28,1.02,2.28,2.28v.1c0,1.93,2.24,2.96,3.74,1.75,1.11-.89,2.34-1.72,3.69-2.46h0ZM41.5,35.19c-1.38-2.46-3.2-4.32-5.45-5.6s-4.69-1.92-7.32-1.92-4.96.65-7.22,1.97c-2.25,1.31-4.07,3.22-5.45,5.7-1.38,2.49-2.07,5.41-2.07,8.78s.69,6.29,2.07,8.78c1.38,2.49,3.19,4.39,5.45,5.7,2.25,1.31,4.66,1.97,7.22,1.97s5.06-.67,7.32-2.02c2.25-1.35,4.07-3.26,5.45-5.75,1.38-2.49,2.07-5.45,2.07-8.88s-.69-6.27-2.07-8.73h0Z"/>
        <path class="cls-3" d="M83.65,17.72c2.26-1.28,4.77-2.08,7.53-2.38,1.38-.15,2.6.92,2.6,2.31v10.45c0,1.29-1.04,2.33-2.33,2.33h-1.44c-4.48,0-7.86,1.03-10.13,3.1-2.28,2.07-3.41,5.67-3.41,10.81v24.97c0,1.29-1.04,2.33-2.33,2.33h-9.77c-1.29,0-2.33-1.04-2.33-2.33V18.33c0-1.29,1.04-2.33,2.33-2.33h9.77c1.29,0,2.33,1.04,2.33,2.33h0c0,1.99,2.35,3.07,3.84,1.76,1.02-.89,2.13-1.68,3.33-2.37h0Z"/>
        <path class="cls-3" d="M113.6,18.62v49.89c0,1.73-1.4,3.13-3.13,3.13h-7.88c-1.73,0-3.13-1.4-3.13-3.13V18.62c0-1.73,1.4-3.13,3.13-3.13h7.88c1.73,0,3.13,1.4,3.13,3.13Z"/>
        <path class="cls-3" d="M148.41,45.8l10.76-28.49c.4-1.21,1.54-2.04,2.81-2.04h8.75c2.07,0,3.5,2.06,2.79,4l-18.66,50.43c-.43,1.17-1.54,1.94-2.79,1.94h-13.16c-1.24,0-2.36-.78-2.79-1.94l-18.57-50.43c-.71-1.94.72-4,2.79-4h8.86c1.28,0,2.42.82,2.81,2.04l10.76,28.49c1.85,4.73,3.78,4.87,5.63,0h0Z"/>
        <path class="cls-3" d="M178.34,28.78c2.21-4.34,5.22-7.68,9.02-10.02,3.8-2.33,8.04-3.5,12.74-3.5,4.1,0,7.68.84,10.75,2.5,1.35.73,2.58,1.55,3.69,2.45,1.49,1.2,3.69.17,3.69-1.74v-.05c0-1.25,1.01-2.26,2.26-2.26h9.45c1.25,0,2.26,1.01,2.26,2.26v50.96c0,1.25-1.01,2.26-2.26,2.26h-9.45c-1.25,0-2.26-1.01-2.26-2.26v-.11c0-1.92-2.23-2.94-3.71-1.73-1.1.9-2.32,1.71-3.67,2.44-3.14,1.7-6.76,2.55-10.85,2.55-4.62,0-8.84-1.2-12.64-3.6s-6.81-5.79-9.02-10.17c-2.21-4.37-3.32-9.4-3.32-15.07s1.11-10.58,3.32-14.92h0ZM215.86,35.29c-1.35-2.46-3.16-4.34-5.45-5.65-2.29-1.31-4.74-1.97-7.37-1.97s-5.05.64-7.27,1.92c-2.22,1.28-4.02,3.15-5.4,5.6-1.38,2.46-2.07,5.37-2.07,8.73s.69,6.31,2.07,8.83c1.38,2.52,3.19,4.46,5.45,5.8,2.25,1.35,4.66,2.02,7.22,2.02s5.08-.65,7.37-1.97c2.29-1.31,4.1-3.19,5.45-5.65,1.35-2.46,2.02-5.4,2.02-8.83s-.67-6.37-2.02-8.83h0Z"/>
        <path class="cls-3" d="M241.15,28.68c2.3-4.23,5.48-7.51,9.55-9.85s8.73-3.5,13.98-3.5c6.76,0,12.35,1.69,16.78,5.07,2.94,2.24,5.24,5.09,6.89,8.54,1.26,2.64-.69,5.69-3.61,5.69h-6.65c-1.47,0-2.8-.82-3.51-2.1-.77-1.39-1.79-2.54-3.07-3.45-1.87-1.35-4.19-2.02-6.94-2.02-3.94,0-7.05,1.43-9.35,4.28-2.3,2.85-3.45,6.91-3.45,12.16s1.15,9.2,3.45,12.06c2.3,2.85,5.41,4.28,9.35,4.28,4.76,0,8.1-1.81,10.04-5.44.68-1.27,2.03-2.05,3.47-2.05h6.52c3.02,0,4.93,3.19,3.56,5.88-1.65,3.23-3.9,5.96-6.77,8.19-4.46,3.48-10.04,5.22-16.73,5.22-5.25,0-9.91-1.17-13.98-3.5s-7.25-5.61-9.55-9.85c-2.3-4.23-3.45-9.17-3.45-14.81s1.15-10.58,3.45-14.81h0Z"/>
        <path class="cls-3" d="M341.7,19.86l-28.12,66.19c-.51,1.23-1.72,2.03-3.06,2.03h-7.98c-2.38,0-3.99-2.44-3.04-4.63l8.1-18.12c.76-2.16.14-3.31-.62-4.95l-16.79-40.54c-.45-1.1-1.01-4.57,3.07-4.57h7.13c1,0,2.24,0,3.02,1.73l10.38,25.65c1.34,2.82,1.87,3.08,3.12,0l10.52-25.56c.85-1.83,1.94-1.82,3.27-1.82h7.95c2.37,0,3.97,2.42,3.06,4.6h0Z"/>
        <path class="cls-3" d="M327.36,85.43c-1.65-1.58-2.47-3.55-2.47-5.9s.82-4.32,2.47-5.9c1.65-1.58,3.72-2.37,6.21-2.37s4.56.79,6.21,2.37c1.65,1.58,2.47,3.55,2.47,5.9s-.83,4.32-2.47,5.9c-1.65,1.58-3.72,2.37-6.21,2.37s-4.56-.79-6.21-2.37Z"/>
      </g>
      <path class="cls-2" d="M431.25,17.76c-4.72-7.25-11.54-12.52-19.25-15.36-4.29-1.58-8.85-2.4-13.49-2.4-3.69,0-7.43.52-11.11,1.62-8.3,2.47-15.29,7.5-20.21,14.09-4.9,6.57-7.75,14.71-7.75,23.37h-.02v38.65c0,2.07.67,4,1.86,5.55,1.18,1.56,2.86,2.73,4.86,3.3,2,.56,4.03.44,5.85-.28,1.82-.71,3.4-2.01,4.49-3.78l.98-1.59h0l4.05-6.6s.05-.05.09-.03c5.27,2.53,11.05,3.84,16.91,3.84.16,0,1.07-.02,1.26-.01h0c2.51-.09,4.99-.41,7.42-.96,8.01-1.82,15.45-6.18,21.06-12.77,5.61-6.59,8.72-14.62,9.25-22.82.52-8.19-1.53-16.56-6.25-23.8h0Z"/>
      <g>
        <path class="cls-1" d="M389.89,30.96c.81-.46,1.7-.75,2.69-.86.5-.06.94.34.94.84v3.63c0,.46-.38.84-.84.84h-.51c-1.6,0-2.81.38-3.63,1.13-.82.75-1.22,2.07-1.22,3.94v9.23c0,.46-.38.84-.84.84h-3.43c-.46,0-.84-.38-.84-.84v-18.53c0-.46.38-.84.84-.84h3.43c.46,0,.84.38.84.84h0c0,.73.85,1.1,1.4.62.36-.32.75-.6,1.17-.84Z"/>
        <path class="cls-1" d="M410.95,31.05c1.19.67,2.12,1.65,2.79,2.95.67,1.3,1,2.86,1,4.69v11.01c0,.46-.38.84-.84.84h-3.43c-.46,0-.84-.38-.84-.84v-10.32c0-1.6-.4-2.84-1.2-3.7-.8-.86-1.9-1.29-3.28-1.29s-2.52.43-3.34,1.29c-.82.86-1.22,2.1-1.22,3.7v10.32c0,.46-.38.84-.84.84h-3.43c-.46,0-.84-.38-.84-.84v-25.31c0-.46.38-.84.84-.84h3.43c.46,0,.84.38.84.84v6.48c0,.68.77,1.08,1.33.68.39-.29.83-.54,1.3-.75,1.09-.5,2.31-.75,3.65-.75,1.53,0,2.89.33,4.08,1Z"/>
      </g>
    </g>
  </g>
</svg>